# Blender v2.82 (sub 7) OBJ File: ''
# www.blender.org
mtllib book_outer.mtl
o Plane
v -3.215770 0.704407 2.723516
v 3.215770 0.704407 2.723516
v -3.215770 0.704407 -2.470560
v 3.215770 0.704407 -2.470560
vt 0.000000 0.000000
vt 1.000000 0.000000
vt 1.000000 1.000000
vt 0.000000 1.000000
vn 0.0000 1.0000 0.0000
usemtl None
s off
f 1/1/1 2/2/1 4/3/1 3/4/1
o Plane.001
v -3.215770 -0.741852 2.745337
v 3.215770 -0.741852 2.745337
v -3.215770 -0.741852 -2.448739
v 3.215770 -0.741852 -2.448739
vt 0.000000 0.000000
vt 1.000000 0.000000
vt 1.000000 1.000000
vt 0.000000 1.000000
vn 0.0000 1.0000 0.0000
usemtl None
s off
f 5/5/2 6/6/2 8/7/2 7/8/2
o Plane.002
v -3.206318 0.718176 2.738641
v 3.206318 0.718176 2.738641
v -3.206318 -0.718176 2.738641
v 3.206318 -0.718176 2.738641
vt 0.000000 0.000000
vt 0.000000 1.000000
vt 1.000000 1.000000
vt 1.000000 0.000000
vn 0.0000 0.0000 1.0000
usemtl None
s off
f 9/9/3 11/10/3 12/11/3 10/12/3
