# Blender v2.82 (sub 7) OBJ File: ''
# www.blender.org
mtllib paint_thread.mtl
o Cube.001_Cube.002
v -0.056825 4.326976 0.155485
v -0.043492 4.322495 -0.044019
v 0.102873 4.207318 0.168846
v 0.116206 4.202837 -0.030659
v -1.839280 1.940760 0.089974
v -1.846159 1.909220 -0.110274
v -1.609132 1.893084 -0.094071
v -1.602254 1.924623 0.106177
vt 0.493795 0.000000
vt 0.625000 0.000000
vt 0.625000 0.250000
vt 0.492307 0.250000
vt 0.625000 0.500000
vt 0.497999 0.500000
vt 0.625000 0.750000
vt 0.499487 0.750000
vt 0.625000 1.000000
vt 0.493795 1.000000
vt 0.875000 0.500000
vt 0.875000 0.750000
vn -0.7985 0.5983 -0.0668
vn 0.0667 -0.0224 -0.9975
vn 0.7985 -0.5983 0.0668
vn -0.0667 0.0224 0.9975
vn 0.5983 0.8010 0.0220
vn -0.0778 -0.9844 0.1577
usemtl None
s off
f 5/1/1 1/2/1 2/3/1 6/4/1
f 6/4/2 2/3/2 4/5/2 7/6/2
f 7/6/3 4/5/3 3/7/3 8/8/3
f 8/8/4 3/7/4 1/9/4 5/10/4
f 4/5/5 2/11/5 1/12/5 3/7/5
f 5/10/6 6/4/6 7/6/6 8/8/6
o Cube.002_Cube.003
v -0.040114 4.210198 0.170838
v -0.031523 4.221336 -0.028667
v 0.125140 4.322059 0.184198
v 0.133731 4.333196 -0.015307
v 1.725760 1.964905 0.121529
v 1.499206 1.943319 0.110568
v 1.505567 1.957740 -0.088849
v 1.746402 1.958296 -0.078448
v 1.744325 1.953588 -0.013347
v 1.716829 1.943821 0.119967
vt 0.504294 0.000000
vt 0.625000 0.000000
vt 0.625000 0.250000
vt 0.504469 0.250000
vt 0.625000 0.500000
vt 0.498542 0.500000
vt 0.625000 0.750000
vt 0.499487 0.750000
vt 0.498485 0.581613
vt 0.875000 0.500000
vt 0.875000 0.750000
vt 0.498938 0.774096
vt 0.504294 1.000000
vt 0.625000 1.000000
vn -0.8263 -0.5593 -0.0668
vn 0.0430 0.0557 -0.9975
vn 0.8263 0.5593 0.0668
vn -0.5616 0.8271 0.0220
vn 0.9050 -0.3950 0.1577
vn 0.0054 -0.9974 -0.0720
vn -0.0430 -0.0557 0.9975
usemtl None
s off
f 14/13/7 9/14/7 10/15/7 15/16/7
f 15/16/8 10/15/8 12/17/8 16/18/8
f 16/18/9 12/17/9 11/19/9 13/20/9 17/21/9
f 12/17/10 10/22/10 9/23/10 11/19/10
f 18/24/11 17/21/11 13/20/11
f 14/25/12 15/16/12 16/18/12 17/21/12 18/24/12
f 13/20/13 11/19/13 9/26/13 14/25/13 18/24/13
